<svg width="370" height="354" viewBox="0 0 370 354" fill="none" xmlns="http://www.w3.org/2000/svg">
<rect x="0.5" y="304.5" width="369" height="49" rx="9.5" fill="white" stroke="#7F099D"/>
<path d="M26.4 336V323.12H35.1V324.42H28.04V328.92H34.38V330.2H28.04V334.72H35.1V336H26.4ZM37.4938 336V326.52H38.9738L39.0738 327.6C39.5271 327.227 40.0538 326.92 40.6538 326.68C41.2671 326.44 41.9671 326.32 42.7538 326.32C43.9538 326.32 44.8271 326.6 45.3738 327.16C45.9204 327.72 46.1937 328.6 46.1937 329.8V336H44.5538V329.86C44.5538 329.033 44.3871 328.46 44.0538 328.14C43.7204 327.807 43.0804 327.64 42.1338 327.64C41.5471 327.64 40.9938 327.747 40.4738 327.96C39.9538 328.173 39.5071 328.467 39.1338 328.84V336H37.4938ZM52.36 336.2C51.4267 336.2 50.72 335.953 50.24 335.46C49.7733 334.953 49.54 334.253 49.54 333.36V327.82H48.1V326.52H49.54V324.18L51.18 323.68V326.52H53.8L53.7 327.82H51.18V333.28C51.18 333.853 51.3067 334.267 51.56 334.52C51.8267 334.76 52.28 334.88 52.92 334.88C53.2667 334.88 53.6467 334.813 54.06 334.68V335.92C53.5667 336.107 53 336.2 52.36 336.2ZM60.6108 336.2C58.9174 336.2 57.6508 335.793 56.8108 334.98C55.9708 334.167 55.5508 332.913 55.5508 331.22C55.5508 329.7 55.9108 328.507 56.6308 327.64C57.3641 326.76 58.5174 326.32 60.0908 326.32C61.0241 326.32 61.7908 326.493 62.3908 326.84C63.0041 327.173 63.4574 327.64 63.7508 328.24C64.0574 328.827 64.2108 329.493 64.2108 330.24V332.02H57.1908C57.2441 332.74 57.3974 333.307 57.6508 333.72C57.9174 334.133 58.3108 334.433 58.8308 334.62C59.3641 334.793 60.0641 334.88 60.9308 334.88C61.9041 334.88 62.7974 334.713 63.6108 334.38V335.66C63.1974 335.833 62.7308 335.967 62.2108 336.06C61.7041 336.153 61.1708 336.2 60.6108 336.2ZM57.1908 330.84H62.7508V330.06C62.7508 329.287 62.5441 328.693 62.1308 328.28C61.7308 327.853 61.0641 327.64 60.1308 327.64C58.9974 327.64 58.2241 327.907 57.8108 328.44C57.3974 328.973 57.1908 329.773 57.1908 330.84ZM66.6148 336V326.52H68.0948L68.2148 327.72C68.6815 327.413 69.2282 327.133 69.8548 326.88C70.4948 326.627 71.1215 326.44 71.7348 326.32V327.6C71.3615 327.68 70.9548 327.793 70.5148 327.94C70.0748 328.073 69.6548 328.227 69.2548 328.4C68.8548 328.573 68.5215 328.753 68.2548 328.94V336H66.6148ZM81.4783 336.2C80.3449 336.2 79.4849 335.887 78.8983 335.26C78.3249 334.633 78.0383 333.72 78.0383 332.52V326.52H79.6783V332.58C79.6783 333.367 79.8716 333.947 80.2583 334.32C80.6583 334.693 81.2716 334.88 82.0983 334.88C82.6849 334.88 83.2383 334.773 83.7583 334.56C84.2783 334.347 84.7249 334.053 85.0983 333.68V326.52H86.7383V336H85.2583L85.1583 334.92C84.7049 335.293 84.1649 335.6 83.5383 335.84C82.9116 336.08 82.2249 336.2 81.4783 336.2ZM92.5245 336.2C91.9112 336.2 91.3245 336.16 90.7645 336.08C90.2179 336 89.7579 335.893 89.3845 335.76V334.32C89.8379 334.48 90.3112 334.6 90.8045 334.68C91.3112 334.76 91.8112 334.8 92.3045 334.8C93.1445 334.8 93.7445 334.713 94.1045 334.54C94.4645 334.353 94.6445 334.013 94.6445 333.52C94.6445 333.16 94.5445 332.887 94.3445 332.7C94.1579 332.513 93.8645 332.347 93.4645 332.2C93.0779 332.053 92.5779 331.88 91.9645 331.68C91.4179 331.493 90.9312 331.3 90.5045 331.1C90.0779 330.9 89.7445 330.633 89.5045 330.3C89.2645 329.953 89.1445 329.493 89.1445 328.92C89.1445 328.08 89.4379 327.44 90.0245 327C90.6112 326.547 91.5579 326.32 92.8645 326.32C93.3712 326.32 93.8579 326.36 94.3245 326.44C94.7912 326.507 95.1979 326.593 95.5445 326.7V328.14C94.7045 327.86 93.8979 327.72 93.1245 327.72C92.2979 327.72 91.6979 327.807 91.3245 327.98C90.9645 328.14 90.7845 328.447 90.7845 328.9C90.7845 329.207 90.8645 329.453 91.0245 329.64C91.1979 329.813 91.4579 329.967 91.8045 330.1C92.1645 330.22 92.6245 330.373 93.1845 330.56C93.9179 330.787 94.5112 331.02 94.9645 331.26C95.4179 331.5 95.7512 331.793 95.9645 332.14C96.1779 332.487 96.2845 332.94 96.2845 333.5C96.2845 334.433 95.9579 335.12 95.3045 335.56C94.6512 335.987 93.7245 336.2 92.5245 336.2ZM103.052 336.2C101.359 336.2 100.092 335.793 99.2522 334.98C98.4122 334.167 97.9922 332.913 97.9922 331.22C97.9922 329.7 98.3522 328.507 99.0722 327.64C99.8055 326.76 100.959 326.32 102.532 326.32C103.466 326.32 104.232 326.493 104.832 326.84C105.446 327.173 105.899 327.64 106.192 328.24C106.499 328.827 106.652 329.493 106.652 330.24V332.02H99.6322C99.6855 332.74 99.8389 333.307 100.092 333.72C100.359 334.133 100.752 334.433 101.272 334.62C101.806 334.793 102.506 334.88 103.372 334.88C104.346 334.88 105.239 334.713 106.052 334.38V335.66C105.639 335.833 105.172 335.967 104.652 336.06C104.146 336.153 103.612 336.2 103.052 336.2ZM99.6322 330.84H105.192V330.06C105.192 329.287 104.986 328.693 104.572 328.28C104.172 327.853 103.506 327.64 102.572 327.64C101.439 327.64 100.666 327.907 100.252 328.44C99.8389 328.973 99.6322 329.773 99.6322 330.84ZM109.056 336V326.52H110.536L110.656 327.72C111.123 327.413 111.67 327.133 112.296 326.88C112.936 326.627 113.563 326.44 114.176 326.32V327.6C113.803 327.68 113.396 327.793 112.956 327.94C112.516 328.073 112.096 328.227 111.696 328.4C111.296 328.573 110.963 328.753 110.696 328.94V336H109.056ZM115.97 336V326.52H117.45L117.55 327.6C118.004 327.227 118.53 326.92 119.13 326.68C119.744 326.44 120.444 326.32 121.23 326.32C122.43 326.32 123.304 326.6 123.85 327.16C124.397 327.72 124.67 328.6 124.67 329.8V336H123.03V329.86C123.03 329.033 122.864 328.46 122.53 328.14C122.197 327.807 121.557 327.64 120.61 327.64C120.024 327.64 119.47 327.747 118.95 327.96C118.43 328.173 117.984 328.467 117.61 328.84V336H115.97ZM130.024 336.2C129.424 336.2 128.87 336.093 128.364 335.88C127.857 335.667 127.45 335.353 127.144 334.94C126.837 334.513 126.684 333.98 126.684 333.34C126.684 332.473 126.97 331.767 127.544 331.22C128.117 330.66 129.05 330.38 130.344 330.38H133.644V329.8C133.644 329.28 133.57 328.867 133.424 328.56C133.29 328.253 133.03 328.033 132.644 327.9C132.257 327.767 131.69 327.7 130.944 327.7C130.37 327.7 129.817 327.747 129.284 327.84C128.75 327.933 128.25 328.06 127.784 328.22V326.86C128.21 326.7 128.71 326.573 129.284 326.48C129.87 326.373 130.497 326.32 131.164 326.32C132.51 326.32 133.517 326.593 134.184 327.14C134.864 327.687 135.204 328.573 135.204 329.8V336H133.824L133.704 334.92C133.29 335.347 132.79 335.667 132.204 335.88C131.617 336.093 130.89 336.2 130.024 336.2ZM130.444 334.86C131.137 334.86 131.75 334.74 132.284 334.5C132.817 334.247 133.27 333.907 133.644 333.48V331.64H130.384C129.637 331.64 129.104 331.78 128.784 332.06C128.464 332.34 128.304 332.767 128.304 333.34C128.304 333.913 128.497 334.313 128.884 334.54C129.27 334.753 129.79 334.86 130.444 334.86ZM137.904 336V326.52H139.384L139.484 327.6C139.991 327.2 140.524 326.887 141.084 326.66C141.657 326.433 142.271 326.32 142.924 326.32C143.631 326.32 144.177 326.433 144.564 326.66C144.964 326.887 145.257 327.207 145.444 327.62C145.897 327.247 146.417 326.94 147.004 326.7C147.591 326.447 148.291 326.32 149.104 326.32C150.184 326.32 150.984 326.6 151.504 327.16C152.037 327.707 152.304 328.553 152.304 329.7V336H150.684V329.86C150.684 329.02 150.504 328.44 150.144 328.12C149.797 327.8 149.231 327.64 148.444 327.64C147.924 327.64 147.424 327.727 146.944 327.9C146.477 328.073 146.077 328.34 145.744 328.7C145.824 329.033 145.864 329.42 145.864 329.86V336H144.324V329.9C144.324 329.1 144.191 328.527 143.924 328.18C143.657 327.82 143.131 327.64 142.344 327.64C141.811 327.64 141.297 327.76 140.804 328C140.324 328.227 139.897 328.513 139.524 328.86V336H137.904ZM159.361 336.2C157.667 336.2 156.401 335.793 155.561 334.98C154.721 334.167 154.301 332.913 154.301 331.22C154.301 329.7 154.661 328.507 155.381 327.64C156.114 326.76 157.267 326.32 158.841 326.32C159.774 326.32 160.541 326.493 161.141 326.84C161.754 327.173 162.207 327.64 162.501 328.24C162.807 328.827 162.961 329.493 162.961 330.24V332.02H155.941C155.994 332.74 156.147 333.307 156.401 333.72C156.667 334.133 157.061 334.433 157.581 334.62C158.114 334.793 158.814 334.88 159.681 334.88C160.654 334.88 161.547 334.713 162.361 334.38V335.66C161.947 335.833 161.481 335.967 160.961 336.06C160.454 336.153 159.921 336.2 159.361 336.2ZM155.941 330.84H161.501V330.06C161.501 329.287 161.294 328.693 160.881 328.28C160.481 327.853 159.814 327.64 158.881 327.64C157.747 327.64 156.974 327.907 156.561 328.44C156.147 328.973 155.941 329.773 155.941 330.84ZM169.974 336V322.52H171.614V327.54C172.054 327.18 172.568 326.887 173.154 326.66C173.754 326.433 174.448 326.32 175.234 326.32C176.381 326.32 177.241 326.6 177.814 327.16C178.388 327.72 178.674 328.6 178.674 329.8V336H177.034V329.86C177.034 329.033 176.848 328.46 176.474 328.14C176.114 327.807 175.514 327.64 174.674 327.64C174.141 327.64 173.588 327.76 173.014 328C172.454 328.227 171.988 328.527 171.614 328.9V336H169.974ZM185.728 336.2C184.035 336.2 182.768 335.793 181.928 334.98C181.088 334.167 180.668 332.913 180.668 331.22C180.668 329.7 181.028 328.507 181.748 327.64C182.481 326.76 183.635 326.32 185.208 326.32C186.141 326.32 186.908 326.493 187.508 326.84C188.121 327.173 188.575 327.64 188.868 328.24C189.175 328.827 189.328 329.493 189.328 330.24V332.02H182.308C182.361 332.74 182.515 333.307 182.768 333.72C183.035 334.133 183.428 334.433 183.948 334.62C184.481 334.793 185.181 334.88 186.048 334.88C187.021 334.88 187.915 334.713 188.728 334.38V335.66C188.315 335.833 187.848 335.967 187.328 336.06C186.821 336.153 186.288 336.2 185.728 336.2ZM182.308 330.84H187.868V330.06C187.868 329.287 187.661 328.693 187.248 328.28C186.848 327.853 186.181 327.64 185.248 327.64C184.115 327.64 183.341 327.907 182.928 328.44C182.515 328.973 182.308 329.773 182.308 330.84ZM191.732 336V326.52H193.212L193.332 327.72C193.799 327.413 194.345 327.133 194.972 326.88C195.612 326.627 196.239 326.44 196.852 326.32V327.6C196.479 327.68 196.072 327.793 195.632 327.94C195.192 328.073 194.772 328.227 194.372 328.4C193.972 328.573 193.639 328.753 193.372 328.94V336H191.732ZM202.915 336.2C201.222 336.2 199.955 335.793 199.115 334.98C198.275 334.167 197.855 332.913 197.855 331.22C197.855 329.7 198.215 328.507 198.935 327.64C199.669 326.76 200.822 326.32 202.395 326.32C203.329 326.32 204.095 326.493 204.695 326.84C205.309 327.173 205.762 327.64 206.055 328.24C206.362 328.827 206.515 329.493 206.515 330.24V332.02H199.495C199.549 332.74 199.702 333.307 199.955 333.72C200.222 334.133 200.615 334.433 201.135 334.62C201.669 334.793 202.369 334.88 203.235 334.88C204.209 334.88 205.102 334.713 205.915 334.38V335.66C205.502 335.833 205.035 335.967 204.515 336.06C204.009 336.153 203.475 336.2 202.915 336.2ZM199.495 330.84H205.055V330.06C205.055 329.287 204.849 328.693 204.435 328.28C204.035 327.853 203.369 327.64 202.435 327.64C201.302 327.64 200.529 327.907 200.115 328.44C199.702 328.973 199.495 329.773 199.495 330.84Z" fill="#DFDFDF"/>
<path d="M6.9 287.2C5.7 287.2 4.64 287.007 3.72 286.62C2.81333 286.22 2.1 285.64 1.58 284.88C1.06 284.107 0.8 283.16 0.8 282.04V274.12H4.56V281.64C4.56 283.213 5.34 284 6.9 284C7.64667 284 8.22 283.807 8.62 283.42C9.02 283.033 9.22 282.44 9.22 281.64V274.12H12.98V282.04C12.98 283.16 12.72 284.107 12.2 284.88C11.6933 285.64 10.98 286.22 10.06 286.62C9.15333 287.007 8.1 287.2 6.9 287.2ZM18.2914 287.2C17.4781 287.2 16.7114 287.14 15.9914 287.02C15.2847 286.913 14.7247 286.773 14.3114 286.6V283.9C14.7781 284.113 15.3314 284.28 15.9714 284.4C16.6247 284.52 17.1781 284.58 17.6314 284.58C18.1114 284.58 18.4714 284.567 18.7114 284.54C18.9647 284.513 19.0914 284.4 19.0914 284.2C19.0914 283.973 18.8714 283.8 18.4314 283.68C17.9914 283.56 17.4381 283.387 16.7714 283.16C15.9047 282.853 15.2581 282.493 14.8314 282.08C14.4047 281.667 14.1914 281.067 14.1914 280.28C14.1914 279.333 14.5647 278.607 15.3114 278.1C16.0581 277.58 17.2314 277.32 18.8314 277.32C19.4447 277.32 20.0781 277.367 20.7314 277.46C21.3847 277.553 21.8981 277.66 22.2714 277.78V280.42C21.8714 280.247 21.4314 280.12 20.9514 280.04C20.4847 279.96 20.0581 279.92 19.6714 279.92C19.2447 279.92 18.8647 279.94 18.5314 279.98C18.1981 280.02 18.0314 280.133 18.0314 280.32C18.0314 280.533 18.2181 280.687 18.5914 280.78C18.9781 280.873 19.4914 281.02 20.1314 281.22C20.8514 281.433 21.4114 281.667 21.8114 281.92C22.2247 282.173 22.5114 282.48 22.6714 282.84C22.8447 283.2 22.9314 283.647 22.9314 284.18C22.9314 285.14 22.5381 285.887 21.7514 286.42C20.9781 286.94 19.8247 287.2 18.2914 287.2ZM29.2645 287.2C28.1579 287.2 27.1779 287.02 26.3245 286.66C25.4845 286.287 24.8245 285.733 24.3445 285C23.8779 284.267 23.6445 283.36 23.6445 282.28C23.6445 280.773 24.0712 279.573 24.9245 278.68C25.7779 277.773 27.0512 277.32 28.7445 277.32C30.2912 277.32 31.4979 277.713 32.3645 278.5C33.2445 279.287 33.6845 280.36 33.6845 281.72V283.38H27.1045C27.2779 283.887 27.6179 284.247 28.1245 284.46C28.6312 284.673 29.3179 284.78 30.1845 284.78C30.7312 284.78 31.2779 284.733 31.8245 284.64C32.3845 284.533 32.8312 284.413 33.1645 284.28V286.54C32.2312 286.98 30.9312 287.2 29.2645 287.2ZM27.1045 281.34H30.4445V281C30.4445 280.627 30.3245 280.32 30.0845 280.08C29.8579 279.84 29.4512 279.72 28.8645 279.72C28.2112 279.72 27.7512 279.86 27.4845 280.14C27.2312 280.407 27.1045 280.807 27.1045 281.34ZM35.0797 287V277.52H38.6997L38.7997 278.28C39.1864 278.053 39.6797 277.847 40.2797 277.66C40.8797 277.473 41.4864 277.36 42.0997 277.32V280.12C41.753 280.147 41.373 280.193 40.9597 280.26C40.5597 280.327 40.1664 280.413 39.7797 280.52C39.4064 280.613 39.093 280.72 38.8397 280.84V287H35.0797ZM43.1656 287V277.52H46.6856L46.7856 278.24C47.1456 278 47.619 277.787 48.2056 277.6C48.8056 277.413 49.4456 277.32 50.1256 277.32C51.3123 277.32 52.179 277.613 52.7256 278.2C53.2723 278.787 53.5456 279.693 53.5456 280.92V287H49.7856V281.3C49.7856 280.873 49.6923 280.567 49.5056 280.38C49.319 280.193 48.9923 280.1 48.5256 280.1C48.2456 280.1 47.9523 280.167 47.6456 280.3C47.3523 280.433 47.1123 280.593 46.9256 280.78V287H43.1656ZM57.903 287.2C57.303 287.2 56.743 287.093 56.223 286.88C55.7163 286.667 55.3096 286.333 55.003 285.88C54.6963 285.427 54.543 284.853 54.543 284.16C54.543 283.16 54.8763 282.387 55.543 281.84C56.2096 281.28 57.2163 281 58.563 281H61.023V280.82C61.023 280.447 60.8696 280.173 60.563 280C60.2563 279.827 59.7163 279.74 58.943 279.74C57.8496 279.74 56.7696 279.907 55.703 280.24V277.98C56.183 277.793 56.783 277.64 57.503 277.52C58.223 277.387 58.9563 277.32 59.703 277.32C61.2096 277.32 62.403 277.627 63.283 278.24C64.163 278.853 64.603 279.827 64.603 281.16V287H61.323L61.143 286.24C60.8096 286.533 60.3763 286.767 59.843 286.94C59.323 287.113 58.6763 287.2 57.903 287.2ZM59.183 285C59.6096 285 59.9696 284.927 60.263 284.78C60.5696 284.633 60.823 284.453 61.023 284.24V283.06H59.203C58.3763 283.06 57.963 283.387 57.963 284.04C57.963 284.68 58.3696 285 59.183 285ZM66.3102 287V277.52H69.7902L69.8902 278.28C70.3035 278 70.7635 277.773 71.2702 277.6C71.7902 277.413 72.3568 277.32 72.9702 277.32C73.5835 277.32 74.0635 277.407 74.4102 277.58C74.7568 277.753 75.0368 278.007 75.2502 278.34C75.6768 278.033 76.1568 277.787 76.6902 277.6C77.2368 277.413 77.8768 277.32 78.6102 277.32C79.7168 277.32 80.5302 277.613 81.0502 278.2C81.5702 278.773 81.8302 279.653 81.8302 280.84V287H78.1302V281.28C78.1302 280.853 78.0435 280.553 77.8702 280.38C77.6968 280.193 77.4102 280.1 77.0102 280.1C76.4902 280.1 76.0635 280.287 75.7302 280.66C75.7568 280.833 75.7702 281 75.7702 281.16C75.7702 281.307 75.7702 281.473 75.7702 281.66V287H72.2902V281.22C72.2902 280.833 72.2235 280.553 72.0902 280.38C71.9568 280.193 71.7035 280.1 71.3302 280.1C71.0768 280.1 70.8302 280.167 70.5902 280.3C70.3502 280.433 70.1368 280.593 69.9502 280.78V287H66.3102ZM88.6395 287.2C87.5329 287.2 86.5529 287.02 85.6995 286.66C84.8595 286.287 84.1995 285.733 83.7195 285C83.2529 284.267 83.0195 283.36 83.0195 282.28C83.0195 280.773 83.4462 279.573 84.2995 278.68C85.1529 277.773 86.4262 277.32 88.1195 277.32C89.6662 277.32 90.8729 277.713 91.7395 278.5C92.6195 279.287 93.0595 280.36 93.0595 281.72V283.38H86.4795C86.6529 283.887 86.9929 284.247 87.4995 284.46C88.0062 284.673 88.6929 284.78 89.5595 284.78C90.1062 284.78 90.6529 284.733 91.1995 284.64C91.7595 284.533 92.2062 284.413 92.5395 284.28V286.54C91.6062 286.98 90.3062 287.2 88.6395 287.2ZM86.4795 281.34H89.8195V281C89.8195 280.627 89.6995 280.32 89.4595 280.08C89.2329 279.84 88.8262 279.72 88.2395 279.72C87.5862 279.72 87.1262 279.86 86.8595 280.14C86.6062 280.407 86.4795 280.807 86.4795 281.34Z" fill="#525252"/>
<rect x="0.5" y="137.5" width="369" height="49" rx="9.5" fill="white" stroke="#7F099D"/>
<path d="M26.4 169V156.12H35.1V157.42H28.04V161.92H34.38V163.2H28.04V167.72H35.1V169H26.4ZM37.4938 169V159.52H38.9738L39.0738 160.6C39.5271 160.227 40.0538 159.92 40.6538 159.68C41.2671 159.44 41.9671 159.32 42.7538 159.32C43.9538 159.32 44.8271 159.6 45.3738 160.16C45.9204 160.72 46.1937 161.6 46.1937 162.8V169H44.5538V162.86C44.5538 162.033 44.3871 161.46 44.0538 161.14C43.7204 160.807 43.0804 160.64 42.1338 160.64C41.5471 160.64 40.9938 160.747 40.4738 160.96C39.9538 161.173 39.5071 161.467 39.1338 161.84V169H37.4938ZM52.36 169.2C51.4267 169.2 50.72 168.953 50.24 168.46C49.7733 167.953 49.54 167.253 49.54 166.36V160.82H48.1V159.52H49.54V157.18L51.18 156.68V159.52H53.8L53.7 160.82H51.18V166.28C51.18 166.853 51.3067 167.267 51.56 167.52C51.8267 167.76 52.28 167.88 52.92 167.88C53.2667 167.88 53.6467 167.813 54.06 167.68V168.92C53.5667 169.107 53 169.2 52.36 169.2ZM60.6108 169.2C58.9174 169.2 57.6508 168.793 56.8108 167.98C55.9708 167.167 55.5508 165.913 55.5508 164.22C55.5508 162.7 55.9108 161.507 56.6308 160.64C57.3641 159.76 58.5174 159.32 60.0908 159.32C61.0241 159.32 61.7908 159.493 62.3908 159.84C63.0041 160.173 63.4574 160.64 63.7508 161.24C64.0574 161.827 64.2108 162.493 64.2108 163.24V165.02H57.1908C57.2441 165.74 57.3974 166.307 57.6508 166.72C57.9174 167.133 58.3108 167.433 58.8308 167.62C59.3641 167.793 60.0641 167.88 60.9308 167.88C61.9041 167.88 62.7974 167.713 63.6108 167.38V168.66C63.1974 168.833 62.7308 168.967 62.2108 169.06C61.7041 169.153 61.1708 169.2 60.6108 169.2ZM57.1908 163.84H62.7508V163.06C62.7508 162.287 62.5441 161.693 62.1308 161.28C61.7308 160.853 61.0641 160.64 60.1308 160.64C58.9974 160.64 58.2241 160.907 57.8108 161.44C57.3974 161.973 57.1908 162.773 57.1908 163.84ZM66.6148 169V159.52H68.0948L68.2148 160.72C68.6815 160.413 69.2282 160.133 69.8548 159.88C70.4948 159.627 71.1215 159.44 71.7348 159.32V160.6C71.3615 160.68 70.9548 160.793 70.5148 160.94C70.0748 161.073 69.6548 161.227 69.2548 161.4C68.8548 161.573 68.5215 161.753 68.2548 161.94V169H66.6148ZM82.7983 169.2C81.1049 169.2 79.8383 168.793 78.9983 167.98C78.1583 167.167 77.7383 165.913 77.7383 164.22C77.7383 162.7 78.0983 161.507 78.8183 160.64C79.5516 159.76 80.7049 159.32 82.2783 159.32C83.2116 159.32 83.9783 159.493 84.5783 159.84C85.1916 160.173 85.6449 160.64 85.9383 161.24C86.2449 161.827 86.3983 162.493 86.3983 163.24V165.02H79.3783C79.4316 165.74 79.5849 166.307 79.8383 166.72C80.1049 167.133 80.4983 167.433 81.0183 167.62C81.5516 167.793 82.2516 167.88 83.1183 167.88C84.0916 167.88 84.9849 167.713 85.7983 167.38V168.66C85.3849 168.833 84.9183 168.967 84.3983 169.06C83.8916 169.153 83.3583 169.2 82.7983 169.2ZM79.3783 163.84H84.9383V163.06C84.9383 162.287 84.7316 161.693 84.3183 161.28C83.9183 160.853 83.2516 160.64 82.3183 160.64C81.1849 160.64 80.4116 160.907 79.9983 161.44C79.5849 161.973 79.3783 162.773 79.3783 163.84ZM88.8023 169V159.52H90.2823L90.3823 160.6C90.889 160.2 91.4223 159.887 91.9823 159.66C92.5557 159.433 93.169 159.32 93.8223 159.32C94.529 159.32 95.0757 159.433 95.4623 159.66C95.8623 159.887 96.1557 160.207 96.3423 160.62C96.7957 160.247 97.3157 159.94 97.9023 159.7C98.489 159.447 99.189 159.32 100.002 159.32C101.082 159.32 101.882 159.6 102.402 160.16C102.936 160.707 103.202 161.553 103.202 162.7V169H101.582V162.86C101.582 162.02 101.402 161.44 101.042 161.12C100.696 160.8 100.129 160.64 99.3423 160.64C98.8223 160.64 98.3223 160.727 97.8423 160.9C97.3757 161.073 96.9757 161.34 96.6423 161.7C96.7223 162.033 96.7623 162.42 96.7623 162.86V169H95.2223V162.9C95.2223 162.1 95.089 161.527 94.8223 161.18C94.5557 160.82 94.029 160.64 93.2423 160.64C92.709 160.64 92.1957 160.76 91.7023 161C91.2223 161.227 90.7957 161.513 90.4223 161.86V169H88.8023ZM108.559 169.2C107.959 169.2 107.405 169.093 106.899 168.88C106.392 168.667 105.985 168.353 105.679 167.94C105.372 167.513 105.219 166.98 105.219 166.34C105.219 165.473 105.505 164.767 106.079 164.22C106.652 163.66 107.585 163.38 108.879 163.38H112.179V162.8C112.179 162.28 112.105 161.867 111.959 161.56C111.825 161.253 111.565 161.033 111.179 160.9C110.792 160.767 110.225 160.7 109.479 160.7C108.905 160.7 108.352 160.747 107.819 160.84C107.285 160.933 106.785 161.06 106.319 161.22V159.86C106.745 159.7 107.245 159.573 107.819 159.48C108.405 159.373 109.032 159.32 109.699 159.32C111.045 159.32 112.052 159.593 112.719 160.14C113.399 160.687 113.739 161.573 113.739 162.8V169H112.359L112.239 167.92C111.825 168.347 111.325 168.667 110.739 168.88C110.152 169.093 109.425 169.2 108.559 169.2ZM108.979 167.86C109.672 167.86 110.285 167.74 110.819 167.5C111.352 167.247 111.805 166.907 112.179 166.48V164.64H108.919C108.172 164.64 107.639 164.78 107.319 165.06C106.999 165.34 106.839 165.767 106.839 166.34C106.839 166.913 107.032 167.313 107.419 167.54C107.805 167.753 108.325 167.86 108.979 167.86ZM117.339 157.3V155.8H119.159V157.3H117.339ZM117.499 169V160.82H116.039L116.199 159.52H119.139V169H117.499ZM124.026 169.2C123.386 169.2 122.88 169.033 122.506 168.7C122.146 168.353 121.966 167.773 121.966 166.96V155.52H123.606V166.78C123.606 167.18 123.673 167.453 123.806 167.6C123.94 167.747 124.146 167.82 124.426 167.82C124.733 167.82 125.033 167.78 125.326 167.7V169C125.113 169.08 124.9 169.133 124.686 169.16C124.473 169.187 124.253 169.2 124.026 169.2ZM134.77 169.2C134.17 169.2 133.616 169.093 133.11 168.88C132.603 168.667 132.196 168.353 131.89 167.94C131.583 167.513 131.43 166.98 131.43 166.34C131.43 165.473 131.716 164.767 132.29 164.22C132.863 163.66 133.796 163.38 135.09 163.38H138.39V162.8C138.39 162.28 138.316 161.867 138.17 161.56C138.036 161.253 137.776 161.033 137.39 160.9C137.003 160.767 136.436 160.7 135.69 160.7C135.116 160.7 134.563 160.747 134.03 160.84C133.496 160.933 132.996 161.06 132.53 161.22V159.86C132.956 159.7 133.456 159.573 134.03 159.48C134.616 159.373 135.243 159.32 135.91 159.32C137.256 159.32 138.263 159.593 138.93 160.14C139.61 160.687 139.95 161.573 139.95 162.8V169H138.57L138.45 167.92C138.036 168.347 137.536 168.667 136.95 168.88C136.363 169.093 135.636 169.2 134.77 169.2ZM135.19 167.86C135.883 167.86 136.496 167.74 137.03 167.5C137.563 167.247 138.016 166.907 138.39 166.48V164.64H135.13C134.383 164.64 133.85 164.78 133.53 165.06C133.21 165.34 133.05 165.767 133.05 166.34C133.05 166.913 133.243 167.313 133.63 167.54C134.016 167.753 134.536 167.86 135.19 167.86ZM146.53 169.2C145.197 169.2 144.15 168.833 143.39 168.1C142.63 167.353 142.25 166.12 142.25 164.4C142.25 162.693 142.643 161.42 143.43 160.58C144.23 159.74 145.297 159.32 146.63 159.32C147.817 159.32 148.843 159.62 149.71 160.22V155.52H151.35V169H149.95L149.83 168C149.39 168.413 148.903 168.72 148.37 168.92C147.85 169.107 147.237 169.2 146.53 169.2ZM146.95 167.88C147.497 167.88 148.003 167.787 148.47 167.6C148.937 167.413 149.35 167.127 149.71 166.74V161.58C149.377 161.287 148.983 161.06 148.53 160.9C148.077 160.727 147.563 160.64 146.99 160.64C145.937 160.64 145.157 160.947 144.65 161.56C144.143 162.16 143.89 163.107 143.89 164.4C143.89 165.64 144.123 166.533 144.59 167.08C145.057 167.613 145.843 167.88 146.95 167.88ZM157.839 169.2C156.505 169.2 155.459 168.833 154.699 168.1C153.939 167.353 153.559 166.12 153.559 164.4C153.559 162.693 153.952 161.42 154.739 160.58C155.539 159.74 156.605 159.32 157.939 159.32C159.125 159.32 160.152 159.62 161.019 160.22V155.52H162.659V169H161.259L161.139 168C160.699 168.413 160.212 168.72 159.679 168.92C159.159 169.107 158.545 169.2 157.839 169.2ZM158.259 167.88C158.805 167.88 159.312 167.787 159.779 167.6C160.245 167.413 160.659 167.127 161.019 166.74V161.58C160.685 161.287 160.292 161.06 159.839 160.9C159.385 160.727 158.872 160.64 158.299 160.64C157.245 160.64 156.465 160.947 155.959 161.56C155.452 162.16 155.199 163.107 155.199 164.4C155.199 165.64 155.432 166.533 155.899 167.08C156.365 167.613 157.152 167.88 158.259 167.88ZM165.463 169V159.52H166.943L167.063 160.72C167.529 160.413 168.076 160.133 168.703 159.88C169.343 159.627 169.969 159.44 170.583 159.32V160.6C170.209 160.68 169.803 160.793 169.363 160.94C168.923 161.073 168.503 161.227 168.103 161.4C167.703 161.573 167.369 161.753 167.103 161.94V169H165.463ZM176.646 169.2C174.953 169.2 173.686 168.793 172.846 167.98C172.006 167.167 171.586 165.913 171.586 164.22C171.586 162.7 171.946 161.507 172.666 160.64C173.399 159.76 174.553 159.32 176.126 159.32C177.059 159.32 177.826 159.493 178.426 159.84C179.039 160.173 179.493 160.64 179.786 161.24C180.093 161.827 180.246 162.493 180.246 163.24V165.02H173.226C173.279 165.74 173.433 166.307 173.686 166.72C173.953 167.133 174.346 167.433 174.866 167.62C175.399 167.793 176.099 167.88 176.966 167.88C177.939 167.88 178.833 167.713 179.646 167.38V168.66C179.233 168.833 178.766 168.967 178.246 169.06C177.739 169.153 177.206 169.2 176.646 169.2ZM173.226 163.84H178.786V163.06C178.786 162.287 178.579 161.693 178.166 161.28C177.766 160.853 177.099 160.64 176.166 160.64C175.033 160.64 174.259 160.907 173.846 161.44C173.433 161.973 173.226 162.773 173.226 163.84ZM185.532 169.2C184.919 169.2 184.332 169.16 183.772 169.08C183.226 169 182.766 168.893 182.392 168.76V167.32C182.846 167.48 183.319 167.6 183.812 167.68C184.319 167.76 184.819 167.8 185.312 167.8C186.152 167.8 186.752 167.713 187.112 167.54C187.472 167.353 187.652 167.013 187.652 166.52C187.652 166.16 187.552 165.887 187.352 165.7C187.166 165.513 186.872 165.347 186.472 165.2C186.086 165.053 185.586 164.88 184.972 164.68C184.426 164.493 183.939 164.3 183.512 164.1C183.086 163.9 182.752 163.633 182.512 163.3C182.272 162.953 182.152 162.493 182.152 161.92C182.152 161.08 182.446 160.44 183.032 160C183.619 159.547 184.566 159.32 185.872 159.32C186.379 159.32 186.866 159.36 187.332 159.44C187.799 159.507 188.206 159.593 188.552 159.7V161.14C187.712 160.86 186.906 160.72 186.132 160.72C185.306 160.72 184.706 160.807 184.332 160.98C183.972 161.14 183.792 161.447 183.792 161.9C183.792 162.207 183.872 162.453 184.032 162.64C184.206 162.813 184.466 162.967 184.812 163.1C185.172 163.22 185.632 163.373 186.192 163.56C186.926 163.787 187.519 164.02 187.972 164.26C188.426 164.5 188.759 164.793 188.972 165.14C189.186 165.487 189.292 165.94 189.292 166.5C189.292 167.433 188.966 168.12 188.312 168.56C187.659 168.987 186.732 169.2 185.532 169.2ZM194.165 169.2C193.552 169.2 192.965 169.16 192.405 169.08C191.858 169 191.398 168.893 191.025 168.76V167.32C191.478 167.48 191.952 167.6 192.445 167.68C192.952 167.76 193.452 167.8 193.945 167.8C194.785 167.8 195.385 167.713 195.745 167.54C196.105 167.353 196.285 167.013 196.285 166.52C196.285 166.16 196.185 165.887 195.985 165.7C195.798 165.513 195.505 165.347 195.105 165.2C194.718 165.053 194.218 164.88 193.605 164.68C193.058 164.493 192.572 164.3 192.145 164.1C191.718 163.9 191.385 163.633 191.145 163.3C190.905 162.953 190.785 162.493 190.785 161.92C190.785 161.08 191.078 160.44 191.665 160C192.252 159.547 193.198 159.32 194.505 159.32C195.012 159.32 195.498 159.36 195.965 159.44C196.432 159.507 196.838 159.593 197.185 159.7V161.14C196.345 160.86 195.538 160.72 194.765 160.72C193.938 160.72 193.338 160.807 192.965 160.98C192.605 161.14 192.425 161.447 192.425 161.9C192.425 162.207 192.505 162.453 192.665 162.64C192.838 162.813 193.098 162.967 193.445 163.1C193.805 163.22 194.265 163.373 194.825 163.56C195.558 163.787 196.152 164.02 196.605 164.26C197.058 164.5 197.392 164.793 197.605 165.14C197.818 165.487 197.925 165.94 197.925 166.5C197.925 167.433 197.598 168.12 196.945 168.56C196.292 168.987 195.365 169.2 194.165 169.2ZM204.935 169V155.52H206.575V160.54C207.015 160.18 207.528 159.887 208.115 159.66C208.715 159.433 209.408 159.32 210.195 159.32C211.342 159.32 212.202 159.6 212.775 160.16C213.348 160.72 213.635 161.6 213.635 162.8V169H211.995V162.86C211.995 162.033 211.808 161.46 211.435 161.14C211.075 160.807 210.475 160.64 209.635 160.64C209.102 160.64 208.548 160.76 207.975 161C207.415 161.227 206.948 161.527 206.575 161.9V169H204.935ZM220.689 169.2C218.996 169.2 217.729 168.793 216.889 167.98C216.049 167.167 215.629 165.913 215.629 164.22C215.629 162.7 215.989 161.507 216.709 160.64C217.442 159.76 218.596 159.32 220.169 159.32C221.102 159.32 221.869 159.493 222.469 159.84C223.082 160.173 223.536 160.64 223.829 161.24C224.136 161.827 224.289 162.493 224.289 163.24V165.02H217.269C217.322 165.74 217.476 166.307 217.729 166.72C217.996 167.133 218.389 167.433 218.909 167.62C219.442 167.793 220.142 167.88 221.009 167.88C221.982 167.88 222.876 167.713 223.689 167.38V168.66C223.276 168.833 222.809 168.967 222.289 169.06C221.782 169.153 221.249 169.2 220.689 169.2ZM217.269 163.84H222.829V163.06C222.829 162.287 222.622 161.693 222.209 161.28C221.809 160.853 221.142 160.64 220.209 160.64C219.076 160.64 218.302 160.907 217.889 161.44C217.476 161.973 217.269 162.773 217.269 163.84ZM226.693 169V159.52H228.173L228.293 160.72C228.76 160.413 229.306 160.133 229.933 159.88C230.573 159.627 231.2 159.44 231.813 159.32V160.6C231.44 160.68 231.033 160.793 230.593 160.94C230.153 161.073 229.733 161.227 229.333 161.4C228.933 161.573 228.6 161.753 228.333 161.94V169H226.693ZM237.876 169.2C236.183 169.2 234.916 168.793 234.076 167.98C233.236 167.167 232.816 165.913 232.816 164.22C232.816 162.7 233.176 161.507 233.896 160.64C234.63 159.76 235.783 159.32 237.356 159.32C238.29 159.32 239.056 159.493 239.656 159.84C240.27 160.173 240.723 160.64 241.016 161.24C241.323 161.827 241.476 162.493 241.476 163.24V165.02H234.456C234.51 165.74 234.663 166.307 234.916 166.72C235.183 167.133 235.576 167.433 236.096 167.62C236.63 167.793 237.33 167.88 238.196 167.88C239.17 167.88 240.063 167.713 240.876 167.38V168.66C240.463 168.833 239.996 168.967 239.476 169.06C238.97 169.153 238.436 169.2 237.876 169.2ZM234.456 163.84H240.016V163.06C240.016 162.287 239.81 161.693 239.396 161.28C238.996 160.853 238.33 160.64 237.396 160.64C236.263 160.64 235.49 160.907 235.076 161.44C234.663 161.973 234.456 162.773 234.456 163.84Z" fill="#DFDFDF"/>
<path d="M0.9 120V107.12H10.66V110H4.66V112.1H9.92V115.02H4.66V117.12H10.66V120H0.9ZM11.857 120V110.52H15.337L15.437 111.28C15.8504 111 16.3104 110.773 16.817 110.6C17.337 110.413 17.9037 110.32 18.517 110.32C19.1304 110.32 19.6104 110.407 19.957 110.58C20.3037 110.753 20.5837 111.007 20.797 111.34C21.2237 111.033 21.7037 110.787 22.237 110.6C22.7837 110.413 23.4237 110.32 24.157 110.32C25.2637 110.32 26.077 110.613 26.597 111.2C27.117 111.773 27.377 112.653 27.377 113.84V120H23.677V114.28C23.677 113.853 23.5904 113.553 23.417 113.38C23.2437 113.193 22.957 113.1 22.557 113.1C22.037 113.1 21.6104 113.287 21.277 113.66C21.3037 113.833 21.317 114 21.317 114.16C21.317 114.307 21.317 114.473 21.317 114.66V120H17.837V114.22C17.837 113.833 17.7704 113.553 17.637 113.38C17.5037 113.193 17.2504 113.1 16.877 113.1C16.6237 113.1 16.377 113.167 16.137 113.3C15.897 113.433 15.6837 113.593 15.497 113.78V120H11.857ZM31.7506 120.2C31.1506 120.2 30.5906 120.093 30.0706 119.88C29.564 119.667 29.1573 119.333 28.8506 118.88C28.544 118.427 28.3906 117.853 28.3906 117.16C28.3906 116.16 28.724 115.387 29.3906 114.84C30.0573 114.28 31.064 114 32.4106 114H34.8706V113.82C34.8706 113.447 34.7173 113.173 34.4106 113C34.104 112.827 33.564 112.74 32.7906 112.74C31.6973 112.74 30.6173 112.907 29.5506 113.24V110.98C30.0306 110.793 30.6306 110.64 31.3506 110.52C32.0706 110.387 32.804 110.32 33.5506 110.32C35.0573 110.32 36.2506 110.627 37.1306 111.24C38.0106 111.853 38.4506 112.827 38.4506 114.16V120H35.1706L34.9906 119.24C34.6573 119.533 34.224 119.767 33.6906 119.94C33.1706 120.113 32.524 120.2 31.7506 120.2ZM33.0306 118C33.4573 118 33.8173 117.927 34.1106 117.78C34.4173 117.633 34.6706 117.453 34.8706 117.24V116.06H33.0506C32.224 116.06 31.8106 116.387 31.8106 117.04C31.8106 117.68 32.2173 118 33.0306 118ZM40.8178 109.26V106.54H44.8778V109.26H40.8178ZM41.1178 120V113.26H39.7378L40.0578 110.52H44.8778V120H41.1178ZM49.9013 120.2C48.7413 120.2 47.9146 119.953 47.4213 119.46C46.9279 118.967 46.6813 118.193 46.6813 117.14V106.52H50.4413V116.72C50.4413 117.013 50.5013 117.213 50.6213 117.32C50.7413 117.413 50.9279 117.46 51.1813 117.46C51.3546 117.46 51.5213 117.447 51.6813 117.42C51.8546 117.393 52.0146 117.353 52.1613 117.3V119.8C51.8146 119.933 51.4746 120.033 51.1413 120.1C50.8213 120.167 50.4079 120.2 49.9013 120.2ZM56.7695 120L61.7095 107.12H65.6895L70.6295 120H66.7095L65.6295 117.26H61.7495L60.6895 120H56.7695ZM62.2495 114.56H65.1295L63.6895 110.78L62.2495 114.56ZM75.1544 120.2C74.261 120.2 73.481 120.053 72.8144 119.76C72.161 119.453 71.6477 118.96 71.2744 118.28C70.9144 117.6 70.7344 116.693 70.7344 115.56C70.7344 114.4 70.941 113.433 71.3544 112.66C71.7677 111.887 72.321 111.307 73.0144 110.92C73.7077 110.52 74.461 110.32 75.2744 110.32C75.7144 110.32 76.1477 110.367 76.5744 110.46C77.0144 110.553 77.3944 110.687 77.7144 110.86V106.52H81.4744V120H78.2144L78.0344 119.26C77.661 119.553 77.241 119.787 76.7744 119.96C76.321 120.12 75.781 120.2 75.1544 120.2ZM76.2344 117.48C76.8077 117.48 77.301 117.287 77.7144 116.9V113.54C77.341 113.207 76.8477 113.04 76.2344 113.04C75.741 113.04 75.341 113.26 75.0344 113.7C74.7277 114.14 74.5744 114.767 74.5744 115.58C74.5744 116.38 74.7077 116.9 74.9744 117.14C75.241 117.367 75.661 117.48 76.2344 117.48ZM87.1075 120.2C86.2142 120.2 85.4342 120.053 84.7675 119.76C84.1142 119.453 83.6008 118.96 83.2275 118.28C82.8675 117.6 82.6875 116.693 82.6875 115.56C82.6875 114.4 82.8942 113.433 83.3075 112.66C83.7208 111.887 84.2742 111.307 84.9675 110.92C85.6608 110.52 86.4142 110.32 87.2275 110.32C87.6675 110.32 88.1008 110.367 88.5275 110.46C88.9675 110.553 89.3475 110.687 89.6675 110.86V106.52H93.4275V120H90.1675L89.9875 119.26C89.6142 119.553 89.1942 119.787 88.7275 119.96C88.2742 120.12 87.7342 120.2 87.1075 120.2ZM88.1875 117.48C88.7608 117.48 89.2542 117.287 89.6675 116.9V113.54C89.2942 113.207 88.8008 113.04 88.1875 113.04C87.6942 113.04 87.2942 113.26 86.9875 113.7C86.6808 114.14 86.5275 114.767 86.5275 115.58C86.5275 116.38 86.6608 116.9 86.9275 117.14C87.1942 117.367 87.6142 117.48 88.1875 117.48ZM95.2359 120V110.52H98.8559L98.9559 111.28C99.3426 111.053 99.8359 110.847 100.436 110.66C101.036 110.473 101.643 110.36 102.256 110.32V113.12C101.909 113.147 101.529 113.193 101.116 113.26C100.716 113.327 100.323 113.413 99.9359 113.52C99.5626 113.613 99.2493 113.72 98.9959 113.84V120H95.2359ZM108.151 120.2C107.045 120.2 106.065 120.02 105.211 119.66C104.371 119.287 103.711 118.733 103.231 118C102.765 117.267 102.531 116.36 102.531 115.28C102.531 113.773 102.958 112.573 103.811 111.68C104.665 110.773 105.938 110.32 107.631 110.32C109.178 110.32 110.385 110.713 111.251 111.5C112.131 112.287 112.571 113.36 112.571 114.72V116.38H105.991C106.165 116.887 106.505 117.247 107.011 117.46C107.518 117.673 108.205 117.78 109.071 117.78C109.618 117.78 110.165 117.733 110.711 117.64C111.271 117.533 111.718 117.413 112.051 117.28V119.54C111.118 119.98 109.818 120.2 108.151 120.2ZM105.991 114.34H109.331V114C109.331 113.627 109.211 113.32 108.971 113.08C108.745 112.84 108.338 112.72 107.751 112.72C107.098 112.72 106.638 112.86 106.371 113.14C106.118 113.407 105.991 113.807 105.991 114.34ZM117.569 120.2C116.755 120.2 115.989 120.14 115.269 120.02C114.562 119.913 114.002 119.773 113.589 119.6V116.9C114.055 117.113 114.609 117.28 115.249 117.4C115.902 117.52 116.455 117.58 116.909 117.58C117.389 117.58 117.749 117.567 117.989 117.54C118.242 117.513 118.369 117.4 118.369 117.2C118.369 116.973 118.149 116.8 117.709 116.68C117.269 116.56 116.715 116.387 116.049 116.16C115.182 115.853 114.535 115.493 114.109 115.08C113.682 114.667 113.469 114.067 113.469 113.28C113.469 112.333 113.842 111.607 114.589 111.1C115.335 110.58 116.509 110.32 118.109 110.32C118.722 110.32 119.355 110.367 120.009 110.46C120.662 110.553 121.175 110.66 121.549 110.78V113.42C121.149 113.247 120.709 113.12 120.229 113.04C119.762 112.96 119.335 112.92 118.949 112.92C118.522 112.92 118.142 112.94 117.809 112.98C117.475 113.02 117.309 113.133 117.309 113.32C117.309 113.533 117.495 113.687 117.869 113.78C118.255 113.873 118.769 114.02 119.409 114.22C120.129 114.433 120.689 114.667 121.089 114.92C121.502 115.173 121.789 115.48 121.949 115.84C122.122 116.2 122.209 116.647 122.209 117.18C122.209 118.14 121.815 118.887 121.029 119.42C120.255 119.94 119.102 120.2 117.569 120.2ZM126.807 120.2C125.994 120.2 125.227 120.14 124.507 120.02C123.8 119.913 123.24 119.773 122.827 119.6V116.9C123.294 117.113 123.847 117.28 124.487 117.4C125.14 117.52 125.694 117.58 126.147 117.58C126.627 117.58 126.987 117.567 127.227 117.54C127.48 117.513 127.607 117.4 127.607 117.2C127.607 116.973 127.387 116.8 126.947 116.68C126.507 116.56 125.954 116.387 125.287 116.16C124.42 115.853 123.774 115.493 123.347 115.08C122.92 114.667 122.707 114.067 122.707 113.28C122.707 112.333 123.08 111.607 123.827 111.1C124.574 110.58 125.747 110.32 127.347 110.32C127.96 110.32 128.594 110.367 129.247 110.46C129.9 110.553 130.414 110.66 130.787 110.78V113.42C130.387 113.247 129.947 113.12 129.467 113.04C129 112.96 128.574 112.92 128.187 112.92C127.76 112.92 127.38 112.94 127.047 112.98C126.714 113.02 126.547 113.133 126.547 113.32C126.547 113.533 126.734 113.687 127.107 113.78C127.494 113.873 128.007 114.02 128.647 114.22C129.367 114.433 129.927 114.667 130.327 114.92C130.74 115.173 131.027 115.48 131.187 115.84C131.36 116.2 131.447 116.647 131.447 117.18C131.447 118.14 131.054 118.887 130.267 119.42C129.494 119.94 128.34 120.2 126.807 120.2Z" fill="#525252"/>
<path d="M6 218L3 205.12H4.62L7.04 215.72L9.82 206.54V205.12H11.16L14.16 215.72L16.62 205.12H18.22L15.24 218H13.5L10.7 208.2L7.76 218H6ZM23.978 218.2C22.2846 218.2 21.018 217.793 20.178 216.98C19.338 216.167 18.918 214.913 18.918 213.22C18.918 211.7 19.278 210.507 19.998 209.64C20.7313 208.76 21.8846 208.32 23.458 208.32C24.3913 208.32 25.158 208.493 25.758 208.84C26.3713 209.173 26.8246 209.64 27.118 210.24C27.4246 210.827 27.578 211.493 27.578 212.24V214.02H20.558C20.6113 214.74 20.7646 215.307 21.018 215.72C21.2846 216.133 21.678 216.433 22.198 216.62C22.7313 216.793 23.4313 216.88 24.298 216.88C25.2713 216.88 26.1646 216.713 26.978 216.38V217.66C26.5646 217.833 26.098 217.967 25.578 218.06C25.0713 218.153 24.538 218.2 23.978 218.2ZM20.558 212.84H26.118V212.06C26.118 211.287 25.9113 210.693 25.498 210.28C25.098 209.853 24.4313 209.64 23.498 209.64C22.3646 209.64 21.5913 209.907 21.178 210.44C20.7646 210.973 20.558 211.773 20.558 212.84ZM29.582 208.66V205.12H31.062L30.802 208.66H29.582ZM35.5186 218.2C34.8786 218.2 34.3719 218.033 33.9986 217.7C33.6386 217.353 33.4586 216.773 33.4586 215.96V204.52H35.0986V215.78C35.0986 216.18 35.1653 216.453 35.2986 216.6C35.4319 216.747 35.6386 216.82 35.9186 216.82C36.2253 216.82 36.5253 216.78 36.8186 216.7V218C36.6053 218.08 36.3919 218.133 36.1786 218.16C35.9653 218.187 35.7453 218.2 35.5186 218.2ZM40.2647 218.2C39.6247 218.2 39.118 218.033 38.7447 217.7C38.3847 217.353 38.2047 216.773 38.2047 215.96V204.52H39.8447V215.78C39.8447 216.18 39.9114 216.453 40.0447 216.6C40.178 216.747 40.3847 216.82 40.6647 216.82C40.9714 216.82 41.2714 216.78 41.5647 216.7V218C41.3514 218.08 41.138 218.133 40.9247 218.16C40.7114 218.187 40.4914 218.2 40.2647 218.2ZM48.068 218V208.52H49.548L49.648 209.6C50.1013 209.227 50.628 208.92 51.228 208.68C51.8413 208.44 52.5413 208.32 53.328 208.32C54.528 208.32 55.4013 208.6 55.948 209.16C56.4946 209.72 56.768 210.6 56.768 211.8V218H55.128V211.86C55.128 211.033 54.9613 210.46 54.628 210.14C54.2946 209.807 53.6546 209.64 52.708 209.64C52.1213 209.64 51.568 209.747 51.048 209.96C50.528 210.173 50.0813 210.467 49.708 210.84V218H48.068ZM63.8217 218.2C62.1284 218.2 60.8617 217.793 60.0217 216.98C59.1817 216.167 58.7617 214.913 58.7617 213.22C58.7617 211.7 59.1217 210.507 59.8417 209.64C60.5751 208.76 61.7284 208.32 63.3017 208.32C64.2351 208.32 65.0017 208.493 65.6017 208.84C66.2151 209.173 66.6684 209.64 66.9617 210.24C67.2684 210.827 67.4217 211.493 67.4217 212.24V214.02H60.4017C60.4551 214.74 60.6084 215.307 60.8617 215.72C61.1284 216.133 61.5217 216.433 62.0417 216.62C62.5751 216.793 63.2751 216.88 64.1417 216.88C65.1151 216.88 66.0084 216.713 66.8217 216.38V217.66C66.4084 217.833 65.9417 217.967 65.4217 218.06C64.9151 218.153 64.3817 218.2 63.8217 218.2ZM60.4017 212.84H65.9617V212.06C65.9617 211.287 65.7551 210.693 65.3417 210.28C64.9417 209.853 64.2751 209.64 63.3417 209.64C62.2084 209.64 61.4351 209.907 61.0217 210.44C60.6084 210.973 60.4017 211.773 60.4017 212.84ZM72.052 218L68.332 208.52H70.032L72.972 216.48L75.912 208.52H77.612L73.892 218H72.052ZM83.5873 218.2C81.894 218.2 80.6273 217.793 79.7873 216.98C78.9473 216.167 78.5273 214.913 78.5273 213.22C78.5273 211.7 78.8873 210.507 79.6073 209.64C80.3407 208.76 81.494 208.32 83.0673 208.32C84.0007 208.32 84.7673 208.493 85.3673 208.84C85.9807 209.173 86.434 209.64 86.7273 210.24C87.034 210.827 87.1873 211.493 87.1873 212.24V214.02H80.1673C80.2207 214.74 80.374 215.307 80.6273 215.72C80.894 216.133 81.2873 216.433 81.8073 216.62C82.3407 216.793 83.0407 216.88 83.9073 216.88C84.8807 216.88 85.774 216.713 86.5873 216.38V217.66C86.174 217.833 85.7073 217.967 85.1873 218.06C84.6807 218.153 84.1473 218.2 83.5873 218.2ZM80.1673 212.84H85.7273V212.06C85.7273 211.287 85.5207 210.693 85.1073 210.28C84.7073 209.853 84.0407 209.64 83.1073 209.64C81.974 209.64 81.2007 209.907 80.7873 210.44C80.374 210.973 80.1673 211.773 80.1673 212.84ZM89.5914 218V208.52H91.0714L91.1914 209.72C91.6581 209.413 92.2047 209.133 92.8314 208.88C93.4714 208.627 94.0981 208.44 94.7114 208.32V209.6C94.3381 209.68 93.9314 209.793 93.4914 209.94C93.0514 210.073 92.6314 210.227 92.2314 210.4C91.8314 210.573 91.4981 210.753 91.2314 210.94V218H89.5914ZM104.095 218.2C103.482 218.2 102.895 218.16 102.335 218.08C101.788 218 101.328 217.893 100.955 217.76V216.32C101.408 216.48 101.882 216.6 102.375 216.68C102.882 216.76 103.382 216.8 103.875 216.8C104.715 216.8 105.315 216.713 105.675 216.54C106.035 216.353 106.215 216.013 106.215 215.52C106.215 215.16 106.115 214.887 105.915 214.7C105.728 214.513 105.435 214.347 105.035 214.2C104.648 214.053 104.148 213.88 103.535 213.68C102.988 213.493 102.502 213.3 102.075 213.1C101.648 212.9 101.315 212.633 101.075 212.3C100.835 211.953 100.715 211.493 100.715 210.92C100.715 210.08 101.008 209.44 101.595 209C102.182 208.547 103.128 208.32 104.435 208.32C104.942 208.32 105.428 208.36 105.895 208.44C106.362 208.507 106.768 208.593 107.115 208.7V210.14C106.275 209.86 105.468 209.72 104.695 209.72C103.868 209.72 103.268 209.807 102.895 209.98C102.535 210.14 102.355 210.447 102.355 210.9C102.355 211.207 102.435 211.453 102.595 211.64C102.768 211.813 103.028 211.967 103.375 212.1C103.735 212.22 104.195 212.373 104.755 212.56C105.488 212.787 106.082 213.02 106.535 213.26C106.988 213.5 107.322 213.793 107.535 214.14C107.748 214.487 107.855 214.94 107.855 215.5C107.855 216.433 107.528 217.12 106.875 217.56C106.222 217.987 105.295 218.2 104.095 218.2ZM110.255 218V204.52H111.895V209.54C112.335 209.18 112.849 208.887 113.435 208.66C114.035 208.433 114.729 208.32 115.515 208.32C116.662 208.32 117.522 208.6 118.095 209.16C118.669 209.72 118.955 210.6 118.955 211.8V218H117.315V211.86C117.315 211.033 117.129 210.46 116.755 210.14C116.395 209.807 115.795 209.64 114.955 209.64C114.422 209.64 113.869 209.76 113.295 210C112.735 210.227 112.269 210.527 111.895 210.9V218H110.255ZM124.309 218.2C123.709 218.2 123.155 218.093 122.649 217.88C122.142 217.667 121.735 217.353 121.429 216.94C121.122 216.513 120.969 215.98 120.969 215.34C120.969 214.473 121.255 213.767 121.829 213.22C122.402 212.66 123.335 212.38 124.629 212.38H127.929V211.8C127.929 211.28 127.855 210.867 127.709 210.56C127.575 210.253 127.315 210.033 126.929 209.9C126.542 209.767 125.975 209.7 125.229 209.7C124.655 209.7 124.102 209.747 123.569 209.84C123.035 209.933 122.535 210.06 122.069 210.22V208.86C122.495 208.7 122.995 208.573 123.569 208.48C124.155 208.373 124.782 208.32 125.449 208.32C126.795 208.32 127.802 208.593 128.469 209.14C129.149 209.687 129.489 210.573 129.489 211.8V218H128.109L127.989 216.92C127.575 217.347 127.075 217.667 126.489 217.88C125.902 218.093 125.175 218.2 124.309 218.2ZM124.729 216.86C125.422 216.86 126.035 216.74 126.569 216.5C127.102 216.247 127.555 215.907 127.929 215.48V213.64H124.669C123.922 213.64 123.389 213.78 123.069 214.06C122.749 214.34 122.589 214.767 122.589 215.34C122.589 215.913 122.782 216.313 123.169 216.54C123.555 216.753 124.075 216.86 124.729 216.86ZM132.189 218V208.52H133.669L133.789 209.72C134.256 209.413 134.802 209.133 135.429 208.88C136.069 208.627 136.696 208.44 137.309 208.32V209.6C136.936 209.68 136.529 209.793 136.089 209.94C135.649 210.073 135.229 210.227 134.829 210.4C134.429 210.573 134.096 210.753 133.829 210.94V218H132.189ZM143.373 218.2C141.679 218.2 140.413 217.793 139.573 216.98C138.733 216.167 138.313 214.913 138.313 213.22C138.313 211.7 138.673 210.507 139.393 209.64C140.126 208.76 141.279 208.32 142.853 208.32C143.786 208.32 144.553 208.493 145.153 208.84C145.766 209.173 146.219 209.64 146.513 210.24C146.819 210.827 146.973 211.493 146.973 212.24V214.02H139.952C140.006 214.74 140.159 215.307 140.413 215.72C140.679 216.133 141.073 216.433 141.593 216.62C142.126 216.793 142.826 216.88 143.693 216.88C144.666 216.88 145.559 216.713 146.373 216.38V217.66C145.959 217.833 145.493 217.967 144.973 218.06C144.466 218.153 143.933 218.2 143.373 218.2ZM139.952 212.84H145.513V212.06C145.513 211.287 145.306 210.693 144.893 210.28C144.493 209.853 143.826 209.64 142.893 209.64C141.759 209.64 140.986 209.907 140.573 210.44C140.159 210.973 139.952 211.773 139.952 212.84ZM155.766 221.52C155.139 221.52 154.593 221.433 154.126 221.26V219.94C154.353 220.02 154.559 220.073 154.746 220.1C154.946 220.127 155.146 220.14 155.346 220.14C155.799 220.14 156.153 220.06 156.406 219.9C156.673 219.74 156.906 219.493 157.106 219.16C157.306 218.84 157.526 218.42 157.766 217.9L153.586 208.52H155.286L158.586 216.16L161.986 208.52H163.666L159.686 217.58C159.353 218.34 159.013 219.013 158.666 219.6C158.319 220.2 157.919 220.667 157.466 221C157.013 221.347 156.446 221.52 155.766 221.52ZM169.107 218.2C167.454 218.2 166.247 217.78 165.487 216.94C164.741 216.087 164.367 214.86 164.367 213.26C164.367 211.673 164.747 210.453 165.507 209.6C166.267 208.747 167.467 208.32 169.107 208.32C170.747 208.32 171.947 208.747 172.707 209.6C173.467 210.453 173.847 211.673 173.847 213.26C173.847 214.86 173.474 216.087 172.727 216.94C171.981 217.78 170.774 218.2 169.107 218.2ZM169.107 216.8C170.241 216.8 171.041 216.52 171.507 215.96C171.974 215.387 172.207 214.487 172.207 213.26C172.207 212.033 171.967 211.14 171.487 210.58C171.021 210.007 170.227 209.72 169.107 209.72C167.987 209.72 167.187 210.007 166.707 210.58C166.241 211.14 166.007 212.033 166.007 213.26C166.007 214.487 166.241 215.387 166.707 215.96C167.174 216.52 167.974 216.8 169.107 216.8ZM179.592 218.2C178.458 218.2 177.598 217.887 177.012 217.26C176.438 216.633 176.152 215.72 176.152 214.52V208.52H177.792V214.58C177.792 215.367 177.985 215.947 178.372 216.32C178.772 216.693 179.385 216.88 180.212 216.88C180.798 216.88 181.352 216.773 181.872 216.56C182.392 216.347 182.838 216.053 183.212 215.68V208.52H184.852V218H183.372L183.272 216.92C182.818 217.293 182.278 217.6 181.652 217.84C181.025 218.08 180.338 218.2 179.592 218.2ZM187.658 218V208.52H189.138L189.258 209.72C189.724 209.413 190.271 209.133 190.898 208.88C191.538 208.627 192.164 208.44 192.778 208.32V209.6C192.404 209.68 191.998 209.793 191.558 209.94C191.118 210.073 190.698 210.227 190.298 210.4C189.898 210.573 189.564 210.753 189.298 210.94V218H187.658ZM203.841 218.2C202.148 218.2 200.881 217.793 200.041 216.98C199.201 216.167 198.781 214.913 198.781 213.22C198.781 211.7 199.141 210.507 199.861 209.64C200.595 208.76 201.748 208.32 203.321 208.32C204.255 208.32 205.021 208.493 205.621 208.84C206.235 209.173 206.688 209.64 206.981 210.24C207.288 210.827 207.441 211.493 207.441 212.24V214.02H200.421C200.475 214.74 200.628 215.307 200.881 215.72C201.148 216.133 201.541 216.433 202.061 216.62C202.595 216.793 203.295 216.88 204.161 216.88C205.135 216.88 206.028 216.713 206.841 216.38V217.66C206.428 217.833 205.961 217.967 205.441 218.06C204.935 218.153 204.401 218.2 203.841 218.2ZM200.421 212.84H205.981V212.06C205.981 211.287 205.775 210.693 205.361 210.28C204.961 209.853 204.295 209.64 203.361 209.64C202.228 209.64 201.455 209.907 201.041 210.44C200.628 210.973 200.421 211.773 200.421 212.84ZM209.845 218V208.52H211.325L211.425 209.6C211.932 209.2 212.465 208.887 213.025 208.66C213.599 208.433 214.212 208.32 214.865 208.32C215.572 208.32 216.119 208.433 216.505 208.66C216.905 208.887 217.199 209.207 217.385 209.62C217.839 209.247 218.359 208.94 218.945 208.7C219.532 208.447 220.232 208.32 221.045 208.32C222.125 208.32 222.925 208.6 223.445 209.16C223.979 209.707 224.245 210.553 224.245 211.7V218H222.625V211.86C222.625 211.02 222.445 210.44 222.085 210.12C221.739 209.8 221.172 209.64 220.385 209.64C219.865 209.64 219.365 209.727 218.885 209.9C218.419 210.073 218.019 210.34 217.685 210.7C217.765 211.033 217.805 211.42 217.805 211.86V218H216.265V211.9C216.265 211.1 216.132 210.527 215.865 210.18C215.599 209.82 215.072 209.64 214.285 209.64C213.752 209.64 213.239 209.76 212.745 210C212.265 210.227 211.839 210.513 211.465 210.86V218H209.845ZM229.602 218.2C229.002 218.2 228.448 218.093 227.942 217.88C227.435 217.667 227.028 217.353 226.722 216.94C226.415 216.513 226.262 215.98 226.262 215.34C226.262 214.473 226.548 213.767 227.122 213.22C227.695 212.66 228.628 212.38 229.922 212.38H233.222V211.8C233.222 211.28 233.148 210.867 233.002 210.56C232.868 210.253 232.608 210.033 232.222 209.9C231.835 209.767 231.268 209.7 230.522 209.7C229.948 209.7 229.395 209.747 228.862 209.84C228.328 209.933 227.828 210.06 227.362 210.22V208.86C227.788 208.7 228.288 208.573 228.862 208.48C229.448 208.373 230.075 208.32 230.742 208.32C232.088 208.32 233.095 208.593 233.762 209.14C234.442 209.687 234.782 210.573 234.782 211.8V218H233.402L233.282 216.92C232.868 217.347 232.368 217.667 231.782 217.88C231.195 218.093 230.468 218.2 229.602 218.2ZM230.022 216.86C230.715 216.86 231.328 216.74 231.862 216.5C232.395 216.247 232.848 215.907 233.222 215.48V213.64H229.962C229.215 213.64 228.682 213.78 228.362 214.06C228.042 214.34 227.882 214.767 227.882 215.34C227.882 215.913 228.075 216.313 228.462 216.54C228.848 216.753 229.368 216.86 230.022 216.86ZM238.382 206.3V204.8H240.202V206.3H238.382ZM238.542 218V209.82H237.082L237.242 208.52H240.182V218H238.542ZM245.069 218.2C244.429 218.2 243.923 218.033 243.549 217.7C243.189 217.353 243.009 216.773 243.009 215.96V204.52H244.649V215.78C244.649 216.18 244.716 216.453 244.849 216.6C244.983 216.747 245.189 216.82 245.469 216.82C245.776 216.82 246.076 216.78 246.369 216.7V218C246.156 218.08 245.943 218.133 245.729 218.16C245.516 218.187 245.296 218.2 245.069 218.2ZM247.863 218V216.62H249.343V218H247.863Z" fill="#525252"/>
<path d="M1.8 44V18.24H21.16V23.84H9.32V28.28H19.64V33.96H9.32V44H1.8ZM33.4472 44.4C29.6605 44.4 26.8605 43.56 25.0472 41.88C23.2605 40.2 22.3672 37.7467 22.3672 34.52C22.3672 31.32 23.2739 28.88 25.0872 27.2C26.9005 25.4933 29.6872 24.64 33.4472 24.64C37.2339 24.64 40.0339 25.4933 41.8472 27.2C43.6872 28.88 44.6072 31.32 44.6072 34.52C44.6072 37.7467 43.7005 40.2 41.8872 41.88C40.0739 43.56 37.2605 44.4 33.4472 44.4ZM33.4472 38.92C34.6739 38.92 35.5539 38.5733 36.0872 37.88C36.6472 37.1867 36.9272 36.0667 36.9272 34.52C36.9272 33 36.6472 31.8933 36.0872 31.2C35.5539 30.48 34.6739 30.12 33.4472 30.12C32.2472 30.12 31.3805 30.48 30.8472 31.2C30.3139 31.8933 30.0472 33 30.0472 34.52C30.0472 36.0667 30.3139 37.1867 30.8472 37.88C31.3805 38.5733 32.2472 38.92 33.4472 38.92ZM57.785 44.4C54.345 44.4 51.625 43.5867 49.625 41.96C47.625 40.3067 46.625 37.8267 46.625 34.52C46.625 32.28 47.0917 30.4267 48.025 28.96C48.9583 27.4933 50.265 26.4133 51.945 25.72C53.625 25 55.585 24.64 57.825 24.64C59.2383 24.64 60.505 24.7467 61.625 24.96C62.745 25.1467 63.8117 25.48 64.825 25.96V31.24C63.2517 30.4933 61.465 30.12 59.465 30.12C57.7583 30.12 56.465 30.44 55.585 31.08C54.7317 31.72 54.305 32.8667 54.305 34.52C54.305 36.0667 54.7183 37.1867 55.545 37.88C56.3717 38.5733 57.6783 38.92 59.465 38.92C60.425 38.92 61.3583 38.8133 62.265 38.6C63.1717 38.36 64.0383 38.0267 64.865 37.6V43.12C63.8517 43.5733 62.7583 43.8933 61.585 44.08C60.4383 44.2933 59.1717 44.4 57.785 44.4ZM74.5394 44.4C72.326 44.4 70.5927 43.7733 69.3394 42.52C68.086 41.2667 67.4594 39.4267 67.4594 37V25.04H74.9794V36.4C74.9794 38.0533 75.8194 38.88 77.4994 38.88C78.1127 38.88 78.7127 38.7467 79.2994 38.48C79.886 38.2133 80.3527 37.88 80.6994 37.48V25.04H88.2194V44H81.1794L80.9794 42.56C80.2327 43.0933 79.3127 43.5333 78.2194 43.88C77.1527 44.2267 75.926 44.4 74.5394 44.4ZM99.2 44.4C97.5733 44.4 96.04 44.28 94.6 44.04C93.1867 43.8267 92.0667 43.5467 91.24 43.2V37.8C92.1733 38.2267 93.28 38.56 94.56 38.8C95.8667 39.04 96.9733 39.16 97.88 39.16C98.84 39.16 99.56 39.1333 100.04 39.08C100.547 39.0267 100.8 38.8 100.8 38.4C100.8 37.9467 100.36 37.6 99.48 37.36C98.6 37.12 97.4933 36.7733 96.16 36.32C94.4267 35.7067 93.1333 34.9867 92.28 34.16C91.4267 33.3333 91 32.1333 91 30.56C91 28.6667 91.7467 27.2133 93.24 26.2C94.7333 25.16 97.08 24.64 100.28 24.64C101.507 24.64 102.773 24.7333 104.08 24.92C105.387 25.1067 106.413 25.32 107.16 25.56V30.84C106.36 30.4933 105.48 30.24 104.52 30.08C103.587 29.92 102.733 29.84 101.96 29.84C101.107 29.84 100.347 29.88 99.68 29.96C99.0133 30.04 98.68 30.2667 98.68 30.64C98.68 31.0667 99.0533 31.3733 99.8 31.56C100.573 31.7467 101.6 32.04 102.88 32.44C104.32 32.8667 105.44 33.3333 106.24 33.84C107.067 34.3467 107.64 34.96 107.96 35.68C108.307 36.4 108.48 37.2933 108.48 38.36C108.48 40.28 107.693 41.7733 106.12 42.84C104.573 43.88 102.267 44.4 99.2 44.4Z" fill="#525252"/>
</svg>
